<svg aria-hidden="true" style="position:absolute; width:0; hight:0" xmlns="http://www.w3.org/2000/svg"
overflow="hidden">
    <defs>
        <symbol id="envelope" viewBox="0 0 32 32">
            <path d="M29 4H3C1 4 0 5 0 7v20c0 2 1 3 3 3h26c2 0 3-1 3-3V7c0-2-1-3-3-3zM12 17l-8 7V8l8 9zM6 8h20l-10 8L6 8zm7 10 3 3 3-3 7 8H6l7-8zm7-1 8-9v16l-8-7z"/>
        </symbol>
        <symbol id="mobile" viewBox="0 0 32 32">
            <path d="M24 0H6L4 2v28l2 2h18l2-2V2l-2-2zm-9 31a2 2 0 1 1 0-4 2 2 0 0 1 0 4zm9-5H6V4h18v22z"/>
        </symbol>

        <symbol id="antenna" viewBox="0 0 44 45">
            <path d="m30.6 22-8.2-8.3 1-4.6h.8A2.3 2.3 0 1 0 22 7.8l-5 .4L9.1 0h-.9L7 1.8v.5l.4.9A15 15 0 0 0 10 21V28H3.8c-1.4 0-2.8.9-2.8 2.7v1l1 .4H26l.4-.5v-.9c0-1.8-.9-2.7-2.3-2.7h-6.4V25c.8.2 1.6.2 2.5.2a15 15 0 0 0 7.7-2h-.1l.4 1 .5.4 1.8-1.8v-1zM23.3 6.3l.5-.1a1 1 0 0 1 .4 2 1 1 0 0 1-1-1.8l.1-.1zM22 9.6l-.4 3.2-1.4-1.4L22 9.6zm-.4-1L19.7 11 17.8 9l3.7-.4zm2.7 20.2c.5 0 1.4 1 1.4 1.8v.5H2.3v-.5c0-.9.4-1.8 1.4-1.8h20.5zm-7.7-2.3V28h-5v-1.4h5zm-5-.9v-4.1c0-1.4.8-2.3 2.2-2.3 1.8 0 2.8 1 2.8 2.3v4.1h-5zm6.3-1.8v-2.3c0-1.8-1.8-3.2-4-3.2-1.5 0-2.4.4-3.3 1.8a14 14 0 0 1-2.3-16L27 23a12.8 12.8 0 0 1-9.2.9zm11-.5-.5-.9L7.8 1.8l.9-.4 21 21-.9 1z"/><path fill="#2196f3" d="M13.7 20.1a1.8 1.8 0 0 0 0 3.2 1.6 1.6 0 1 0 0-3.2zm.5 2.3h-.3a.5.5 0 0 1-.2-1h.2a.5.5 0 0 1 .3 1z"/>
        </symbol>
        <symbol id="clock" viewBox="0 0 44 45">
         <path d="M31.086 15.086C30.944 6.864 24.245.253 16.002.253 7.67.253.916 7.007.916 15.339c0 6.698 4.365 12.376 10.405 14.346l.107.03h.457l.457-.457 3.657-11.886c.827-.212 1.428-.95 1.428-1.829 0-1.041-.844-1.885-1.885-1.885-.162 0-.32.021-.47.059l.013-.003-5.029-5.029a.64474.64474 0 0 0-.457-.189c-.357 0-.646.289-.646.646 0 .179.072.34.189.457l5.029 5.029c-.457.457 0 1.829.457 2.286l-3.657 11.429C5.4 26.35 1.485 21.116 1.485 14.969 1.485 7.142 7.83.798 15.656.798s14.171 6.345 14.171 14.171c0 5.715-3.383 10.639-8.255 12.881l-.088.036v-1.829c0-.379-.307-.686-.686-.686s-.686.307-.686.686l-3.657 3.2c-.379 0-.686.307-.686.686s.307.686.686.686L21.484 32c.117.117.279.189.457.189.357 0 .646-.289.646-.646 0-.179-.072-.34-.189-.457l-.457-1.829c5.486-2.286 9.143-7.771 9.143-14.171zM16 14.629c.379 0 .686.307.686.686s-.307.686-.686.686c-.379 0-.686-.307-.686-.686s.307-.686.686-.686zm2.286 15.085 1.829-2.286.914 3.2-2.743-.914z"/><path fill="#2196f3" d="M15.543 3.2v1.371c0 .252.205.457.457.457s.457-.205.457-.457V3.2c0-.252-.205-.457-.457-.457s-.457.205-.457.457zM3.657 14.629c-.379 0-.686.307-.686.686s.307.686.686.686h1.371c.379 0 .686-.307.686-.686s-.307-.686-.686-.686H3.657zM27.886 16c.379 0 .686-.307.686-.686s-.307-.686-.686-.686h-.914c-.379 0-.686.307-.686.686s.307.686.686.686h.914z"/>  
        <symbol id="diagram" viewBox="0 0 44 45">
         <path fill="#2196f3" d="M15.086 15.086H16v4.571h-.914v-4.571zm4.114 1.828h.914v2.743H19.2v-2.743zm-8.686 1.829h1.371v.914h-1.371v-.914zm-3.2-.457h1.371v1.371H7.314v-1.371z"/><path d="M1.371 28.343h25.6c.914 0 1.829-.914 1.829-1.829v-1.829c0-.914-.914-1.829-1.829-1.829h-.457V9.599l3.2-2.743c.221.102.48.162.752.162 1.01 0 1.829-.819 1.829-1.829s-.819-1.829-1.829-1.829-1.829.819-1.829 1.829c0 .273.06.531.167.764l-.005-.011-2.286 2.286V6.857c0-.914-.457-1.371-1.371-1.371H3.656c-.914 0-1.371.457-1.371 1.371v16h-.914c-.457 0-1.371.914-1.371 1.829v1.829c0 .914.914 1.829 1.371 1.829zm28.8-23.314c.252 0 .457.205.457.457s-.205.457-.457.457-.457-.205-.457-.457.205-.457.457-.457zM3.2 6.857l.457-.457h21.486l.457.457v2.286l-.914.914V8.228l-.914-.914h-19.2l-.457.914v13.257l.457.457h19.2l.914-.457v-9.6l.914-1.371v12.343H3.2v-16zm4.571 6.857c-.507.257-.848.775-.848 1.371 0 .847.686 1.533 1.533 1.533.25 0 .486-.06.694-.166l-.009.004 1.829.914h.457l4.114-4.571 3.657 3.2h.914l3.2-3.2v8.229H5.483V8.685h17.829v2.743l-3.657 3.2-3.657-2.743h-.914l-4.114 4.571-1.371-.914c0-.914-.914-1.829-1.829-1.829zm.915 1.829c0 .379-.307.686-.686.686s-.686-.307-.686-.686c0-.379.307-.686.686-.686s.686.307.686.686zm3.2 8.686h5.029v.457l-.457.457h-4.114l-.457-.457v-.457zm-10.972.457.457-.457h9.143v.457c0 .914.914 1.371 1.829 1.371h4.114c.914 0 1.829-.457 1.829-1.371v-.457h8.686l.914.457v1.829l-.914.914h-25.6l-.457-.914v-1.829z"/>   
        </symbol>    
        <symbol id="astronaut" viewBox="0 0 44 45">
         <path fill="#2196f3" d="m32 4.571-.457-.457-1.829-.457-.914-1.371h-.914l-.914 1.371-1.829.457c-.067-.034-.145-.054-.229-.054-.282 0-.511.229-.511.511 0 .199.114.371.28.456l.003.001 1.371 1.371-.457 1.829c-.034.067-.054.145-.054.229 0 .282.229.511.511.511.199 0 .371-.114.456-.28l.001-.003 1.829-.914 1.829.914c.252 0 .457-.205.457-.457V6.399L32 5.028v-.457zm-2.286 1.372-.457.457.457.914-1.371-.457c-.066-.038-.144-.061-.229-.061s-.163.023-.231.062l.002-.001-.914.457.457-.914-1.371-1.371h1.371l.457-.457.457-.914.457.914.457.457h.914l-.457.914zm-3.657 14.628h-.914v.914h.914v-.914zm0 2.286h-.914v.914h.914v-.914zm1.372-1.371h-1.371v1.371h1.371v-1.371zm-2.286 0h-.914v1.371h.914v-1.371zM22.4 26.514h-.914v.914h.914v-.914zm0 1.829h-.914v1.371h.914v-1.371zm.914-.914H22.4v.914h.914v-.914zm-1.828 0h-1.371v.914h1.371v-.914zM16 24.229h-.914v.914H16v-.914zm0 2.285h-.914v.914H16v-.914zm.914-1.371H16v1.371h.914v-1.371zm-1.828 0h-1.371v1.371h1.371v-1.371zm-9.143-19.2H4.572v1.371h1.371V5.943zm0 2.286H4.572v.914h1.371v-.914zm.914-.915h-.914v.914h.914v-.914zm-2.286 0h-.914v.914h.914v-.914z"/><path d="m24.686 14.171-1.371-.914-.914.457-1.371.914-1.829 1.371-1.371-.457c2.677-.975 4.555-3.498 4.555-6.459 0-3.787-3.07-6.857-6.857-6.857-.316 0-.628.021-.933.063l.036-.004c-3.787 0-6.857 3.07-6.857 6.857 0 1.551.515 2.983 1.384 4.132l-.012-.017h-3.2l-3.2 1.371-1.829.914c-.559.324-.929.919-.929 1.6 0 1.018.825 1.843 1.843 1.843.336 0 .652-.09.923-.248l-.009.005 1.371-.914 2.286-.914h1.371L.916 23.771c-.25.31-.401.709-.401 1.143s.151.833.404 1.146l-.003-.004c.31.25.709.401 1.143.401s.833-.151 1.146-.404l-.004.003 1.371-1.371 1.829-1.371.914.914-3.2 3.2c-.25.31-.401.709-.401 1.143s.151.833.404 1.146l-.003-.004c.31.25.709.401 1.143.401s.833-.151 1.146-.404l-.004.003 4.571-4.571L16 19.656l3.657.457h.457l3.2-2.286 1.371-1.371V14.17zm-22.4 3.658h-.914c-.19-.168-.31-.413-.31-.686s.119-.517.309-.685l.001-.001L2.743 16l.457.914v.457l-.914.457zM5.486 16l-1.371.914L3.658 16v-.457l1.829-.914V16zm15.085-6.857-.457 2.743L16 10.057l-.914-1.371 1.371-5.029c2.743.914 4.114 3.2 4.114 5.486zm-11.428 0c.235-3.088 2.799-5.505 5.927-5.505.167 0 .332.007.495.02l-.021-.001-1.371 4.571c-.914 0-1.829.914-1.829 1.829.137.886.894 1.557 1.808 1.557.556 0 1.054-.248 1.39-.64l.002-.002 4.114 1.829c-1.098 1.316-2.738 2.147-4.573 2.147-3.234 0-5.864-2.582-5.941-5.797v-.007zm5.943.914-.914.914-.914-.914.914-.914.914.914zm-12.8 15.086h-.457c-.252 0-.457-.205-.457-.457s.205-.457.457-.457l.914-.914.457.914-.914.914zm3.2 3.657h-.457c-.252 0-.457-.205-.457-.457s.205-.457.457-.457l.914-.914.914.914-1.371.914zm3.657-3.2-1.829 1.371h-.457l-.457-.457 1.829-1.829v-.914L6.4 21.942h-.457l-1.829 1.371-.914-.914 2.743-2.286 4.114 4.571-.914.914zM16 18.286c-.252 0-.457.205-.457.457l-4.571 5.029-4.571-4.114 2.743-3.2c.252 0 .457-.205.457-.457s-.205-.457-.457-.457H6.858v-1.371h3.2c1.232 1.194 2.915 1.93 4.769 1.93.415 0 .821-.037 1.216-.107l-.042.006h.457l2.286 1.371v.457l.457.914-3.2-.457zm4.114.457-.457-1.829L21.028 16l.457.457.457.914-1.829 1.371zm3.657-3.2-.914.914-.914-1.371.914-.457h.457c.279.16.465.456.465.796 0 .042-.003.083-.008.123v-.005z"/><path d="m13.714 18.743-2.286-2.286h-.914l-1.829 2.286c-.039.066-.061.144-.061.229s.023.163.062.231l-.001-.002 1.829 2.286c0 .252.205.457.457.457s.457-.205.457-.457l2.286-2.286c.039-.066.061-.144.061-.229s-.023-.163-.062-.231l.001.002zm-2.743 1.371L9.6 18.743l1.371-1.371 1.371 1.371-1.371 1.371zm6.4-15.085-.457.914s1.829.457 1.829 2.286h.914c0-1.829-1.829-2.743-2.286-3.2zm2.286 4.114h-.914v1.371h.914V9.143z"/> 
       </symbol>
       <symbol id="instagram" viewBox="0 0 32 32">
        <path d="M16 3a112 112 0 0 1 9 1l2 1 1 2 1 3a113 113 0 0 1-1 15l-1 2-2 1-3 1a113 113 0 0 1-15-1l-2-1-1-2-1-3A113 113 0 0 1 4 7l1-2 2-1 3-1h6zm0-3A117 117 0 0 0 6 1C4 1 4 2 3 3S1 4 1 6L0 9a118 118 0 0 0 1 17c0 2 1 2 2 3s1 2 3 2l3 1a117 117 0 0 0 17-1c2 0 2-1 3-2l2-3 1-3a117 117 0 0 0-1-17c0-2-1-2-2-3s-1-2-3-2l-3-1h-7z"/>
        <path d="M16 8a8 8 0 1 0 0 16 8 8 0 0 0 0-16zm0 13a5 5 0 1 1 0-10 5 5 0 0 1 0 10zM26 7a2 2 0 1 1-3 0 2 2 0 0 1 3 0z"/>
       </symbol>
       <symbol id="twitter" viewBox="0 0 32 32">
       <path d="m32 7-4 1c2-1 3-2 3-4l-4 2a7 7 0 0 0-11 6C10 12 5 9 2 5a7 7 0 0 0 2 9l-3-1c0 3 3 6 6 7a7 7 0 0 1-3 0c0 2 3 4 6 4a13 13 0 0 1-10 3 19 19 0 0 0 29-17l3-3z"/>
       </symbol>
        <symbol id="facebook" viewBox="0 0 32 32">
       <path d="M19 6h5V0h-5c-4 0-7 3-7 7v3H8v6h4v16h6V16h5l1-6h-6V7l1-1z"/>
       </symbol>
        <symbol id="linkedin" viewBox="0 0 32 32">
       <path d="M12 12h6v3c0-2 2-3 5-3 6 0 7 4 7 8v10h-6v-9c0-2 0-4-3-4s-3 2-3 4v9h-6V12zM2 12h6v18H2V12zM8 7a3 3 0 1 1-6 0 3 3 0 0 1 6 0z"/>
       </symbol>
        <symbol id="Logo" viewBox="0 0 106 61">
       <path fill-rule="evenodd" clip-rule="evenodd" d="M38 7.71313L45.0078 14.3473L32 14.3396V46.5269H66V34.2202L73 40.8469V7.71313H38ZM65.6924 33.4415L45.8226 14.6311H65.6924V33.4415ZM59.5231 41.8187H37.3801V20.1711H38.9453V40.3528H59.5231V41.8187ZM42.6089 50.8123L41.791 52.4968L40.9731 50.8123H40.2871L41.481 53.0583V54.3669H42.1011V53.0583L43.2925 50.8123H42.6089ZM43.6367 54.3669L43.9248 53.5393H45.3018L45.5923 54.3669H46.2368L44.8916 50.8123H44.3374L42.9946 54.3669H43.6367ZM44.6133 51.5667L45.1284 53.0413H44.0981L44.6133 51.5667ZM47.8701 52.9558C47.7806 53.0925 47.7358 53.2431 47.7358 53.4075C47.7358 53.707 47.8408 53.9503 48.0508 54.1375C48.2624 54.323 48.5439 54.4158 48.8955 54.4158C49.2471 54.4158 49.5498 54.3206 49.8037 54.1301L50.0039 54.3669H50.6924L50.1699 53.7493C50.375 53.4693 50.4775 53.1104 50.4775 52.6726H49.9624C49.9624 52.9119 49.9128 53.1292 49.8135 53.3245L49.1274 52.5139L49.3691 52.3381C49.54 52.2144 49.6629 52.0907 49.7378 51.967C49.8127 51.8417 49.8501 51.705 49.8501 51.5569C49.8501 51.3323 49.7671 51.1443 49.6011 50.9929C49.4367 50.8399 49.2251 50.7634 48.9663 50.7634C48.6798 50.7634 48.452 50.8448 48.2827 51.0076C48.1134 51.1687 48.0288 51.3884 48.0288 51.6667C48.0288 51.7807 48.0557 51.8987 48.1094 52.0208C48.1647 52.1428 48.2616 52.2909 48.3999 52.4651C48.1362 52.6539 47.9596 52.8175 47.8701 52.9558ZM49.4741 53.7419C49.3 53.8754 49.1128 53.9421 48.9126 53.9421C48.7352 53.9421 48.5936 53.8909 48.4878 53.7883C48.382 53.6858 48.3291 53.5523 48.3291 53.3879C48.3291 53.1975 48.4268 53.0282 48.6221 52.8801L48.6978 52.8264L49.4741 53.7419ZM48.8369 52.1672C48.6693 51.9605 48.5854 51.7888 48.5854 51.6521C48.5854 51.5333 48.6196 51.4348 48.688 51.3567C48.7563 51.2786 48.8483 51.2395 48.9639 51.2395C49.0713 51.2395 49.16 51.2729 49.23 51.3396C49.3 51.4047 49.335 51.4836 49.335 51.5764C49.335 51.7164 49.2845 51.8311 49.1836 51.9207L49.1079 51.9817L48.8369 52.1672ZM54.623 54.0984C54.8672 53.8852 55.0072 53.5889 55.043 53.2097H54.4277C54.3952 53.4636 54.3179 53.6451 54.1958 53.7542C54.0737 53.8632 53.8914 53.9177 53.6489 53.9177C53.3836 53.9177 53.1818 53.8168 53.0435 53.615C52.9067 53.4132 52.8384 53.1202 52.8384 52.7361V52.4211C52.8416 52.0419 52.9149 51.7546 53.0581 51.5593C53.203 51.3624 53.4097 51.2639 53.6782 51.2639C53.9093 51.2639 54.0843 51.3209 54.2031 51.4348C54.3236 51.5471 54.3984 51.731 54.4277 51.9866H55.043C55.0039 51.5976 54.8647 51.2965 54.6255 51.0833C54.3862 50.87 54.0705 50.7634 53.6782 50.7634C53.3869 50.7634 53.1297 50.8326 52.9067 50.9709C52.6854 51.1093 52.5153 51.3062 52.3965 51.5618C52.2777 51.8173 52.2183 52.1127 52.2183 52.448V52.78C52.2231 53.1072 52.2842 53.3945 52.4014 53.6418C52.5186 53.8892 52.6846 54.0805 52.8994 54.2156C53.1159 54.349 53.3657 54.4158 53.6489 54.4158C54.0542 54.4158 54.3789 54.31 54.623 54.0984ZM58.2534 53.6003C58.3739 53.3367 58.4341 53.0307 58.4341 52.6824V52.4846C58.4325 52.1379 58.3706 51.8344 58.2485 51.574C58.1265 51.3119 57.9531 51.1117 57.7285 50.9734C57.5055 50.8334 57.2492 50.7634 56.9595 50.7634C56.6698 50.7634 56.4126 50.8342 56.188 50.9758C55.965 51.1158 55.7917 51.3184 55.668 51.5837C55.5459 51.849 55.4849 52.155 55.4849 52.5017V52.7019C55.4865 53.0421 55.5483 53.3424 55.6704 53.6028C55.7941 53.8632 55.9683 54.0642 56.1929 54.2058C56.4191 54.3458 56.6763 54.4158 56.9644 54.4158C57.2557 54.4158 57.5129 54.3458 57.7358 54.2058C57.9604 54.0642 58.133 53.8624 58.2534 53.6003ZM57.5918 51.5911C57.7415 51.801 57.8164 52.1029 57.8164 52.4968V52.6824C57.8164 53.0828 57.7423 53.3871 57.5942 53.5955C57.4478 53.8038 57.2378 53.908 56.9644 53.908C56.6942 53.908 56.4826 53.8013 56.3296 53.5881C56.1782 53.3749 56.1025 53.073 56.1025 52.6824V52.4773C56.1058 52.0948 56.1823 51.7994 56.332 51.5911C56.4834 51.3811 56.6925 51.2761 56.9595 51.2761C57.2329 51.2761 57.4437 51.3811 57.5918 51.5911Z"/>
        </symbol>
        <symbol id="Logo2" viewBox="0 0 106 61">
        <path fill-rule="evenodd" clip-rule="evenodd" d="M50.1136 6.64766h-.1366c-.2099-.01272-.4199-.01781-.6299-.02289h-.4553c-.3972 0-.802.01017-1.2042.03051a.62817.62817 0 0 0-.091 0c-3.6444.20649-7.2149 1.11737-10.5161 2.68278l-.4326.20852V31.6877l1.0119-.3433c.8879-.3051 1.834-.5798 2.813-.8341a34.3342 34.3342 0 0 1 8.0952-1.0756v2.9091c-.3618.0025-.7134.0127-1.065.0305h-.0835c-2.102.1153-4.1878.4355-6.2282.9561-2.5841.647-5.077 1.6184-7.4197 2.8913V7.82502c2.4331-1.41914 5.0537-2.48501 7.784-3.16592a29.79289 29.79289 0 0 1 7.3362-.94597h.4275c.511.01272 1.0094.03561 1.4774.07121a21.09044 21.09044 0 0 1 3.6554.58232v2.86332a22.6239 22.6239 0 0 0-3.5416-.53401 88.80254 88.80254 0 0 1-.0726-.00618c-.2468-.02105-.4939-.04213-.7243-.04213Zm5.0392 2.92686c.6349.04831 1.2927.0712 1.958.0712a31.46675 31.46675 0 0 0 7.7131-.98919c2.5829-.64943 5.0747-1.62162 7.4172-2.89383v27.8906c-2.4344 1.4183-5.0558 2.4842-7.7865 3.166a29.9426 29.9426 0 0 1-7.3362.9434 22.4048 22.4048 0 0 1-5.5654-.6561V9.03542c.43.09918.8727.19072 1.323.26701.7387.1246 1.5179.21614 2.2768.27209Zm14.1943.21615-1.0119.34073c-.931.3128-1.8695.5925-2.8131.8417a34.2628 34.2628 0 0 1-8.4063 1.0782c-.6602 0-1.2673-.0178-1.8542-.0559l-.807-.0534V34.7188l.6931.0611c.6426.0559 1.3054.0839 1.9732.0839a26.88843 26.88843 0 0 0 6.6203-.857 27.76376 27.76376 0 0 0 5.1733-1.8589l.4326-.2085V9.79067Z"/><path d="M35.7371 45.9255a1.49239 1.49239 0 0 0-.5147-.3478 1.48616 1.48616 0 0 0-.611-.1074 1.67595 1.67595 0 0 0-.6501.1221 1.50294 1.50294 0 0 0-.506.3331c-.1428.1448-.254.3181-.3263.5086a1.6501 1.6501 0 0 0-.1164.6281v3.794c-.009.2674.042.5333.1493.7782.0895.1944.2188.3677.3794.5085.1517.1277.3297.2198.5212.2696.1844.0518.3751.0784.5666.0788.2113.0021.4204-.043.6122-.1322.1896-.083.3615-.2022.506-.3509.1408-.1474.2532-.3199.3313-.5086a1.5338 1.5338 0 0 0 .1215-.6052v-.4247h-.9917v.3382a.87958.87958 0 0 1-.0582.3382.60663.60663 0 0 1-.1442.2136.60478.60478 0 0 1-.2074.1094.69733.69733 0 0 1-.2074.0356.5041.5041 0 0 1-.26-.0388.5068.5068 0 0 1-.2055-.1647.89783.89783 0 0 1-.1315-.5085v-3.5372a1.20725 1.20725 0 0 1 .1214-.5671.50693.50693 0 0 1 .2102-.1845.50463.50463 0 0 1 .2755-.0444.52684.52684 0 0 1 .2475.052.5298.5298 0 0 1 .1952.1616c.111.1457.169.3252.1644.5086v.3281h.9816v-.3866a1.79059 1.79059 0 0 0-.1215-.6637 1.56258 1.56258 0 0 0-.3314-.534ZM41.6289 45.8822c-.3162-.267-.7153-.4145-1.1282-.417-.202.0009-.4023.037-.592.1068-.1926.069-.3703.1743-.5236.3102a1.5597 1.5597 0 0 0-.3846.5315c-.0999.2318-.149.4824-.1442.7349v3.6389c-.0068.256.0424.5104.1442.7451.0898.1957.221.3693.3846.5086.1516.1407.3296.2497.5236.3204.1897.0698.39.1059.592.1068.202-.0004.4024-.0365.5919-.1068.1974-.0717.3793-.1804.5363-.3204.1582-.1419.2856-.3151.3744-.5086.1018-.2347.1511-.4891.1442-.7451v-3.6389a1.77016 1.77016 0 0 0-.1442-.7349 1.64111 1.64111 0 0 0-.3744-.5315Zm-.4629 4.9053a.65557.65557 0 0 1-.0392.2857.65235.65235 0 0 1-.1581.2407.72615.72615 0 0 1-.4668.17.72588.72588 0 0 1-.4667-.17.64988.64988 0 0 1-.1581-.2407.65262.65262 0 0 1-.0392-.2857v-3.6389a.65262.65262 0 0 1 .0392-.2857.6507.6507 0 0 1 .1581-.2407c.131-.1098.2961-.17.4667-.17a.7267.7267 0 0 1 .4668.17.65317.65317 0 0 1 .1581.2407.65557.65557 0 0 1 .0392.2857v3.6389ZM49.3673 52.4125v-6.8887h-.9537l-1.2522 3.6465h-.0177l-1.2624-3.6465h-.9436v6.8887h.9841v-4.1907h.0177l.9638 2.9625h.4908l.9714-2.9625h.0177v4.1907h.9841ZM54.9581 46.0068a1.36707 1.36707 0 0 0-.5566-.3764 2.18377 2.18377 0 0 0-.7134-.1068H52.226v6.8888h.9815V49.722h.5059c.3063.0139.611-.0508.8854-.1882.2232-.1239.4093-.3057.5389-.5264.1135-.1832.19-.3871.2251-.6001a4.8985 4.8985 0 0 0 .0531-.7832 3.92308 3.92308 0 0 0-.0961-.9841 1.46698 1.46698 0 0 0-.3617-.6332Zm-.506 2.1004a.86633.86633 0 0 1-.0911.3586.55293.55293 0 0 1-.2529.2416c-.1454.065-.304.0946-.463.0864h-.4477v-2.342h.5059a.94109.94109 0 0 1 .4427.0865.55525.55525 0 0 1 .2302.2543c.0537.121.0829.2515.086.3839v.4578c0 .1602.0101.3255 0 .4729h-.0101ZM59.6077 45.5238h-.8045l-1.5178 6.8887h.9815l.2884-1.4799h1.3382l.2884 1.4799h.9816l-1.5558-6.8887Zm-.9057 4.4704.4832-2.4971h.0177l.4807 2.4971h-.9816ZM65.9497 49.6738h-.0177l-1.4824-4.15h-.9436v6.8887h.9815v-4.1424h.0203l1.5001 4.1424h.9233v-6.8887h-.9815v4.15ZM71.9476 45.5238l-.7893 2.7387h-.0202l-.7893-2.7387h-1.0397l1.3483 3.9771v2.9116h.9816v-2.9116l1.3483-3.9771h-1.0397ZM33 54.3577h.4731v1.3274h.3212v-1.3274h.4706v-.2721H33v.2721ZM36.9767 54.0856l-.6198 1.5995h.3415l.1316-.3637h.6375l.1366.3637h.3491l-.635-1.5995h-.3415Zm-.0506.9663.2176-.5925.2175.5925h-.4351ZM40.9079 55.0953h.3694v.2059a.61224.61224 0 0 1-.3795.1348.40237.40237 0 0 1-.1879-.0349.40456.40456 0 0 1-.1511-.1177c-.0848-.1217-.1266-.2685-.1189-.417 0-.356.1543-.534.4604-.534a.3379.3379 0 0 1 .2277.0598.34125.34125 0 0 1 .1341.1945l.3162-.061c-.0683-.3128-.2934-.4705-.678-.4705-.2056-.0055-.4056.0682-.559.206a.7809.7809 0 0 0-.1827.2821.7833.7833 0 0 0-.0475.3333.87196.87196 0 0 0 .2049.6001.77557.77557 0 0 0 .278.1839.77162.77162 0 0 0 .3291.05c.2503.007.4934-.0842.678-.2542v-.6307h-.6932v.2696ZM44.9226 54.0856h-.3238v1.5995h1.1206v-.2721h-.7968v-1.3274ZM48.3175 54.0856h-.3238v1.5995h.3238v-1.5995ZM51.6365 55.1536l-.6552-1.068h-.3137v1.5995h.301v-1.0452l.6426 1.0452h.3213v-1.5995h-.296v1.068ZM54.6368 54.9807h.7969v-.2721h-.7969v-.3509h.8576v-.2721H54.313v1.5995h1.2143v-.2721h-.8905v-.4323ZM61.9122 54.7162h-.6299v-.6306h-.3212v1.5995h.3212v-.6993h.6299v.6993h.3213v-1.5995h-.3213v.6306ZM64.9302 54.9807h.7994v-.2721h-.7994v-.3509h.8601v-.2721h-1.1814v1.5995h1.2117v-.2721h-.8904v-.4323ZM69.0233 54.9807c.2782-.0432.4199-.1907.4199-.445a.38278.38278 0 0 0-.0298-.1996.38106.38106 0 0 0-.1271-.1564.90478.90478 0 0 0-.468-.0941h-.6779v1.5995h.3213v-.6688h.0632c.0685-.0042.137.008.1998.0356.047.029.0861.0692.1139.117l.3491.5086h.3845l-.1948-.3128a1.1151 1.1151 0 0 0-.3541-.384Zm-.3239-.2212h-.2377v-.4018h.2529a.83992.83992 0 0 1 .3264.0382.20807.20807 0 0 1 .054.0751c.0122.0288.0177.06.0163.0913a.20947.20947 0 0 1-.0247.0893.20831.20831 0 0 1-.0608.0698.91263.91263 0 0 1-.3264.0381ZM72.1096 54.9807h.7968v-.2721h-.7968v-.3509h.8601v-.2721h-1.1839v1.5995H73v-.2721h-.8904v-.4323Z"/>
        </symbol>
        <symbol id="Logo3" viewBox="0 0 106 61">
        <path d="M36.4063 49.1014a.13565.13565 0 0 1 .0461.0092.12225.12225 0 0 1 .0384.024l.2181.2085c-.1693.1687-.3785.3037-.6134.3957-.2751.1003-.5716.1487-.8698.1421-.2802.005-.5586-.0401-.8179-.1327-.2339-.085-.444-.2126-.6162-.3743-.1757-.1677-.3111-.3643-.3981-.5781-.0953-.2384-.1423-.4893-.139-.7416-.0039-.2539.047-.5062.1499-.7439.0953-.2152.2389-.4117.4226-.5781.1862-.1631.4089-.2914.6544-.3767.2685-.0905.5545-.1355.8425-.1327.2675-.0056.5336.0354.7825.1208.2159.0814.4142.1944.5862.3341l-.1827.2227c-.0126.0157-.0283.0293-.0464.0403-.0215.0128-.0476.0187-.0736.0166-.0283-.0017-.0556-.0099-.079-.0237l-.0982-.0593-.1363-.0758a1.55462 1.55462 0 0 0-.1827-.0734 1.88974 1.88974 0 0 0-.2481-.0592 1.89237 1.89237 0 0 0-.3245-.0237c-.2073-.0023-.4131.0315-.6052.0995-.1792.0629-.3409.1582-.4744.2795-.136.1291-.2408.2806-.3081.4455-.0768.1886-.1147.3875-.1118.5875-.0033.2032.0345.4053.1118.5971.0665.1634.1693.314.3026.443.1249.1203.2797.2143.4526.2749.178.0641.369.0963.5617.0947.1112.0015.2225-.0048.3326-.0189.1798-.0191.3522-.0734.5044-.1588a1.6474 1.6474 0 0 0 .2154-.1469c.028-.0232.0649-.0367.1036-.0379ZM42.7044 48.0538c.0034.2514-.0465.5011-.1473.7368-.0888.2137-.2288.4087-.4106.572-.1819.1634-.4015.2914-.6445.3756-.5338.1769-1.1239.1769-1.6577 0-.2413-.0855-.4595-.2138-.6407-.3767-.1817-.1663-.3227-.3629-.4144-.578-.1964-.4772-.1964-.9988 0-1.4759.093-.2153.2338-.4125.4144-.5805.1827-.1577.4008-.2811.6407-.3624.5332-.1801 1.1246-.1801 1.6577 0 .2422.0855.4613.2137.6435.3767.1795.1646.3194.3587.4116.5709.1011.2372.151.4886.1473.7415Zm-.5726 0c.0043-.2011-.0307-.4013-.1036-.5923-.0611-.1635-.1604-.3143-.2917-.443-.1278-.1217-.2852-.2172-.4608-.2795-.3878-.1295-.8172-.1295-1.2051 0-.1755.0623-.3329.1578-.4607.2795-.1332.1279-.2335.2789-.2945.443-.1387.3857-.1387.7989 0 1.1846.0616.1639.1619.3148.2945.443.128.121.2854.2157.4607.2772.3886.1262.8166.1262 1.2051 0 .1754-.0615.3328-.1562.4608-.2772.1307-.129.23-.2797.2917-.443.0732-.1909.1082-.3912.1036-.5923ZM47.0013 48.6747l.0573.1327c.0218-.0474.0409-.0901.0627-.1327.0208-.0445.0444-.088.0709-.1303l1.3932-2.2006c.0273-.0379.0518-.0615.0791-.0687a.37299.37299 0 0 1 .1145-.0118h.4117v3.5792h-.4881v-2.743a.97394.97394 0 0 1 0-.1232l-1.4014 2.2314c-.0178.0334-.0462.0617-.082.0814-.0358.0198-.0774.0301-.1197.0299h-.0791c-.0425.0005-.0842-.0097-.12-.0295-.0358-.0198-.0642-.0482-.0818-.0818l-1.4423-2.2456v2.8733h-.4716v-3.5721h.4117c.0386-.002.0774.002.1145.0118.0338.0146.0607.0389.0763.0687l1.4232 2.203c.028.0407.0517.0835.0709.1279ZM52.2443 48.4969v1.3407h-.5453v-3.5744h1.216c.2296-.0038.4585.0225.6789.0781.1765.0435.3402.1194.4799.2227.1211.0968.2145.2168.2726.3506.0644.1458.0959.301.0927.4571.0024.1568-.0319.3123-.1008.4572-.0656.1371-.1663.2595-.2945.3577-.1399.1075-.3043.1883-.4826.2368-.2123.059-.4343.087-.6571.0829l-.6598-.0094Zm0-.3838h.6598c.1434.0017.286-.0167.4226-.0544.1127-.033.2166-.0854.3054-.154.0819-.0656.1454-.1466.1854-.2369.0446-.0955.0669-.1977.0654-.3008.0064-.0994-.0123-.1987-.0547-.2912-.0423-.0924-.1074-.1758-.1906-.2441-.2083-.1413-.47-.2098-.7335-.1919h-.6598v1.4733ZM59.5731 49.8424h-.4308c-.0432.0014-.0857-.0103-.12-.0332-.0309-.0223-.0552-.0507-.0709-.0829l-.3708-.8647h-1.8621l-.3845.8647c-.0141.0316-.0376.0594-.0681.0806-.0347.0242-.0782.0368-.1227.0355h-.4308l1.6359-3.5796h.5671l1.6577 3.5796Zm-2.6992-1.329h1.5377l-.6489-1.457a2.36662 2.36662 0 0 1-.1227-.3364l-.0627.1872c-.0191.0568-.0409.109-.06.1516l-.6434 1.4546ZM61.9288 46.2795c.0326.0155.0606.0374.0818.0639l2.3856 2.6983V46.2629h.4881v3.5795h-.2727c-.0387.001-.0771-.0063-.1118-.0213-.0336-.0171-.0633-.0396-.0872-.0663l-2.3829-2.6959a.97394.97394 0 0 1 0 .1232V49.8424h-.4881v-3.5795h.289c.0338-.0008.0673.0048.0982.0166ZM68.9031 48.4188v1.4214h-.5453v-1.4214L66.85 46.2631h.4881c.042-.0022.0836.0087.1172.0307.0297.023.0546.0503.0736.0806l.9434 1.3906c.0382.0592.0709.1137.0982.1658.0272.0521.049.1019.0681.1516l.0709-.154c.0265-.0563.0574-.1109.0927-.1634l.9297-1.4001a.37867.37867 0 0 1 .0709-.0758c.0324-.0245.0744-.0373.1173-.0355h.4935l-1.5105 2.1652ZM46.7314 40.2561c.2372.0261.4771.0474.7198.0664 3.6788-1.4299 6.791-3.7702 8.9474-6.7283 2.1565-2.9582 3.2616-6.403 3.1772-9.9038l-4.0542-3.5226c.8243 3.7273.4387 7.5804-1.1137 11.1281-1.5524 3.5478-4.2104 6.6502-7.6765 8.9602Z"/><path d="m45.2837 40.0923.1091.0189c3.7038-2.3018 6.5277-5.5161 8.1065-9.2273 1.5787-3.7112 1.8396-7.7486.749-11.59l-5.7746-5.0172c2.3357 4.1241 3.2758 8.7395 2.7111 13.3095-.5647 4.57-2.6111 8.9068-5.9011 12.5061ZM64.8679 27.8265c-.9811 3.8466-3.3638 7.3158-6.7944 9.8924-1.0019.7566-2.0826 1.4307-3.2281 2.0135 2.7935-.7134 5.3611-1.9746 7.5048-3.6864 2.1438-1.7119 3.8064-3.8286 4.8598-6.187l-2.3421-2.0325Z"/><path d="m63.9491 27.2601-3.3345-2.8972c-.0637 3.3031-1.1445 6.5311-3.13 9.3485-1.9855 2.8173-4.8032 5.1213-8.1603 6.6723h.0163a21.7448 21.7448 0 0 0 2.2385-.1161c3.1374-1.1126 5.9089-2.8827 8.0674-5.1524 2.1584-2.2697 3.6366-4.9683 4.3026-7.8551ZM45.7663 12.1609l-3.978-3.46095c-3.5561 1.19396-6.6145 3.29285-8.7749 6.02205-2.1605 2.7292-3.3222 5.9615-3.3333 9.2739.0133 3.6601 1.4312 7.2118 4.0292 10.0929 2.598 2.8811 6.2278 4.9272 10.3148 5.8142 3.6484-3.862 5.7845-8.6343 6.0978-13.6232.3133-4.989-1.2125-9.9349-4.3556-14.1189ZM73.14 26.7273c-.0143-4.3425-2.0062-8.5035-5.5403-11.5741-3.5342-3.0706-8.3234-4.8012-13.3214-4.8137-2.3095-.0021-4.5994.3682-6.7535 1.092l24.3556 21.1611c.834-1.8705 1.2611-3.8593 1.2596-5.8653Z"/>
        </symbol>
       <symbol id="Logo4" viewBox="0 0 106 61">
       <path fill-rule="evenodd" clip-rule="evenodd" d="M50.1136 6.64766h-.1366c-.2099-.01272-.4199-.01781-.6299-.02289h-.4553c-.3972 0-.802.01017-1.2042.03051a.62817.62817 0 0 0-.091 0c-3.6444.20649-7.2149 1.11737-10.5161 2.68278l-.4326.20852V31.6877l1.0119-.3433c.8879-.3051 1.834-.5798 2.813-.8341a34.3342 34.3342 0 0 1 8.0952-1.0756v2.9091c-.3618.0025-.7134.0127-1.065.0305h-.0835c-2.102.1153-4.1878.4355-6.2282.9561-2.5841.647-5.077 1.6184-7.4197 2.8913V7.82502c2.4331-1.41914 5.0537-2.48501 7.784-3.16592a29.79289 29.79289 0 0 1 7.3362-.94597h.4275c.511.01272 1.0094.03561 1.4774.07121a21.09044 21.09044 0 0 1 3.6554.58232v2.86332a22.6239 22.6239 0 0 0-3.5416-.53401 88.80254 88.80254 0 0 1-.0726-.00618c-.2468-.02105-.4939-.04213-.7243-.04213Zm5.0392 2.92686c.6349.04831 1.2927.0712 1.958.0712a31.46675 31.46675 0 0 0 7.7131-.98919c2.5829-.64943 5.0747-1.62162 7.4172-2.89383v27.8906c-2.4344 1.4183-5.0558 2.4842-7.7865 3.166a29.9426 29.9426 0 0 1-7.3362.9434 22.4048 22.4048 0 0 1-5.5654-.6561V9.03542c.43.09918.8727.19072 1.323.26701.7387.1246 1.5179.21614 2.2768.27209Zm14.1943.21615-1.0119.34073c-.931.3128-1.8695.5925-2.8131.8417a34.2628 34.2628 0 0 1-8.4063 1.0782c-.6602 0-1.2673-.0178-1.8542-.0559l-.807-.0534V34.7188l.6931.0611c.6426.0559 1.3054.0839 1.9732.0839a26.88843 26.88843 0 0 0 6.6203-.857 27.76376 27.76376 0 0 0 5.1733-1.8589l.4326-.2085V9.79067Z"/><path d="M35.7371 45.9255a1.49239 1.49239 0 0 0-.5147-.3478 1.48616 1.48616 0 0 0-.611-.1074 1.67595 1.67595 0 0 0-.6501.1221 1.50294 1.50294 0 0 0-.506.3331c-.1428.1448-.254.3181-.3263.5086a1.6501 1.6501 0 0 0-.1164.6281v3.794c-.009.2674.042.5333.1493.7782.0895.1944.2188.3677.3794.5085.1517.1277.3297.2198.5212.2696.1844.0518.3751.0784.5666.0788.2113.0021.4204-.043.6122-.1322.1896-.083.3615-.2022.506-.3509.1408-.1474.2532-.3199.3313-.5086a1.5338 1.5338 0 0 0 .1215-.6052v-.4247h-.9917v.3382a.87958.87958 0 0 1-.0582.3382.60663.60663 0 0 1-.1442.2136.60478.60478 0 0 1-.2074.1094.69733.69733 0 0 1-.2074.0356.5041.5041 0 0 1-.26-.0388.5068.5068 0 0 1-.2055-.1647.89783.89783 0 0 1-.1315-.5085v-3.5372a1.20725 1.20725 0 0 1 .1214-.5671.50693.50693 0 0 1 .2102-.1845.50463.50463 0 0 1 .2755-.0444.52684.52684 0 0 1 .2475.052.5298.5298 0 0 1 .1952.1616c.111.1457.169.3252.1644.5086v.3281h.9816v-.3866a1.79059 1.79059 0 0 0-.1215-.6637 1.56258 1.56258 0 0 0-.3314-.534ZM41.6289 45.8822c-.3162-.267-.7153-.4145-1.1282-.417-.202.0009-.4023.037-.592.1068-.1926.069-.3703.1743-.5236.3102a1.5597 1.5597 0 0 0-.3846.5315c-.0999.2318-.149.4824-.1442.7349v3.6389c-.0068.256.0424.5104.1442.7451.0898.1957.221.3693.3846.5086.1516.1407.3296.2497.5236.3204.1897.0698.39.1059.592.1068.202-.0004.4024-.0365.5919-.1068.1974-.0717.3793-.1804.5363-.3204.1582-.1419.2856-.3151.3744-.5086.1018-.2347.1511-.4891.1442-.7451v-3.6389a1.77016 1.77016 0 0 0-.1442-.7349 1.64111 1.64111 0 0 0-.3744-.5315Zm-.4629 4.9053a.65557.65557 0 0 1-.0392.2857.65235.65235 0 0 1-.1581.2407.72615.72615 0 0 1-.4668.17.72588.72588 0 0 1-.4667-.17.64988.64988 0 0 1-.1581-.2407.65262.65262 0 0 1-.0392-.2857v-3.6389a.65262.65262 0 0 1 .0392-.2857.6507.6507 0 0 1 .1581-.2407c.131-.1098.2961-.17.4667-.17a.7267.7267 0 0 1 .4668.17.65317.65317 0 0 1 .1581.2407.65557.65557 0 0 1 .0392.2857v3.6389ZM49.3673 52.4125v-6.8887h-.9537l-1.2522 3.6465h-.0177l-1.2624-3.6465h-.9436v6.8887h.9841v-4.1907h.0177l.9638 2.9625h.4908l.9714-2.9625h.0177v4.1907h.9841ZM54.9581 46.0068a1.36707 1.36707 0 0 0-.5566-.3764 2.18377 2.18377 0 0 0-.7134-.1068H52.226v6.8888h.9815V49.722h.5059c.3063.0139.611-.0508.8854-.1882.2232-.1239.4093-.3057.5389-.5264.1135-.1832.19-.3871.2251-.6001a4.8985 4.8985 0 0 0 .0531-.7832 3.92308 3.92308 0 0 0-.0961-.9841 1.46698 1.46698 0 0 0-.3617-.6332Zm-.506 2.1004a.86633.86633 0 0 1-.0911.3586.55293.55293 0 0 1-.2529.2416c-.1454.065-.304.0946-.463.0864h-.4477v-2.342h.5059a.94109.94109 0 0 1 .4427.0865.55525.55525 0 0 1 .2302.2543c.0537.121.0829.2515.086.3839v.4578c0 .1602.0101.3255 0 .4729h-.0101ZM59.6077 45.5238h-.8045l-1.5178 6.8887h.9815l.2884-1.4799h1.3382l.2884 1.4799h.9816l-1.5558-6.8887Zm-.9057 4.4704.4832-2.4971h.0177l.4807 2.4971h-.9816ZM65.9497 49.6738h-.0177l-1.4824-4.15h-.9436v6.8887h.9815v-4.1424h.0203l1.5001 4.1424h.9233v-6.8887h-.9815v4.15ZM71.9476 45.5238l-.7893 2.7387h-.0202l-.7893-2.7387h-1.0397l1.3483 3.9771v2.9116h.9816v-2.9116l1.3483-3.9771h-1.0397ZM33 54.3577h.4731v1.3274h.3212v-1.3274h.4706v-.2721H33v.2721ZM36.9767 54.0856l-.6198 1.5995h.3415l.1316-.3637h.6375l.1366.3637h.3491l-.635-1.5995h-.3415Zm-.0506.9663.2176-.5925.2175.5925h-.4351ZM40.9079 55.0953h.3694v.2059a.61224.61224 0 0 1-.3795.1348.40237.40237 0 0 1-.1879-.0349.40456.40456 0 0 1-.1511-.1177c-.0848-.1217-.1266-.2685-.1189-.417 0-.356.1543-.534.4604-.534a.3379.3379 0 0 1 .2277.0598.34125.34125 0 0 1 .1341.1945l.3162-.061c-.0683-.3128-.2934-.4705-.678-.4705-.2056-.0055-.4056.0682-.559.206a.7809.7809 0 0 0-.1827.2821.7833.7833 0 0 0-.0475.3333.87196.87196 0 0 0 .2049.6001.77557.77557 0 0 0 .278.1839.77162.77162 0 0 0 .3291.05c.2503.007.4934-.0842.678-.2542v-.6307h-.6932v.2696ZM44.9226 54.0856h-.3238v1.5995h1.1206v-.2721h-.7968v-1.3274ZM48.3175 54.0856h-.3238v1.5995h.3238v-1.5995ZM51.6365 55.1536l-.6552-1.068h-.3137v1.5995h.301v-1.0452l.6426 1.0452h.3213v-1.5995h-.296v1.068ZM54.6368 54.9807h.7969v-.2721h-.7969v-.3509h.8576v-.2721H54.313v1.5995h1.2143v-.2721h-.8905v-.4323ZM61.9122 54.7162h-.6299v-.6306h-.3212v1.5995h.3212v-.6993h.6299v.6993h.3213v-1.5995h-.3213v.6306ZM64.9302 54.9807h.7994v-.2721h-.7994v-.3509h.8601v-.2721h-1.1814v1.5995h1.2117v-.2721h-.8904v-.4323ZM69.0233 54.9807c.2782-.0432.4199-.1907.4199-.445a.38278.38278 0 0 0-.0298-.1996.38106.38106 0 0 0-.1271-.1564.90478.90478 0 0 0-.468-.0941h-.6779v1.5995h.3213v-.6688h.0632c.0685-.0042.137.008.1998.0356.047.029.0861.0692.1139.117l.3491.5086h.3845l-.1948-.3128a1.1151 1.1151 0 0 0-.3541-.384Zm-.3239-.2212h-.2377v-.4018h.2529a.83992.83992 0 0 1 .3264.0382.20807.20807 0 0 1 .054.0751c.0122.0288.0177.06.0163.0913a.20947.20947 0 0 1-.0247.0893.20831.20831 0 0 1-.0608.0698.91263.91263 0 0 1-.3264.0381ZM72.1096 54.9807h.7968v-.2721h-.7968v-.3509h.8601v-.2721h-1.1839v1.5995H73v-.2721h-.8904v-.4323Z"/>
        </symbol>
        <symbol id="Logo5" viewBox="0 0 106 61">
        <path d="M26.7569 44.7352c.2437.2762.3735.622.3667.977.0124.2315-.0322.4627-.1306.6763-.0983.2136-.2479.4042-.4376.5578-.4734.3273-1.0598.4873-1.6517.4506H22v-6.1914h2.8442c.5615-.0342 1.1184.1112 1.5758.4113.1836.1408.3291.3187.4248.5197.0958.2011.1392.4197.1268.6388.0167.3415-.1004.6773-.3303.9467-.2207.246-.5257.4165-.8655.4839.3852.0644.7329.252.9811.5293Zm-3.4058-.9346h1.2156c.2763.0187.5507-.0543.773-.2057.0913-.0757.1623-.1697.2076-.2746.0452-.1049.0635-.2179.0534-.3303.0086-.112-.0101-.2243-.0546-.329-.0446-.1046-.1139-.1988-.2031-.2759-.2289-.1557-.5118-.2298-.7961-.2087h-1.1958v1.6242Zm2.1076 2.3744c.0975-.0776.1742-.1747.2241-.2838.0498-.1091.0715-.2273.0633-.3454.0074-.1194-.0152-.2388-.0662-.3489-.051-.1101-.1289-.2081-.2278-.2862-.2379-.1615-.5304-.2408-.8259-.2239h-1.2751v1.7029h1.2916c.2907.0154.5785-.0604.816-.2147ZM32.5709 47.3969l-1.5823-2.4197h-.5946v2.4197h-1.361v-6.1914h2.5766c.6495-.0415 1.2916.1469 1.7938.5263.3601.336.5774.7788.6125 1.2485.0351.4697-.1141.9355-.4209 1.3134-.3179.3334-.7522.5557-1.2289.6291l1.6847 2.4741h-1.4799Zm-2.1769-3.2636h1.1132c.773 0 1.1595-.3125 1.1595-.9376.0079-.1276-.0133-.2554-.0622-.3752-.0489-.1197-.1245-.2289-.2219-.3205-.2443-.186-.5589-.2762-.8754-.251h-1.1265l.0133 1.8843ZM40.0102 46.1506h-2.7121l-.479 1.2462H35.392l2.4908-6.1219h1.5427l2.4808 6.1219h-1.427l-.4691-1.2462Zm-.3634-.9376-.991-2.6133-.991 2.6133h1.982ZM49.3224 47.3969h-1.3511l-3.0292-4.2103v4.2103h-1.3478v-6.1915h1.3478l3.0292 4.2346v-4.2346h1.3511v6.1915ZM57.0326 45.9149c-.2794.4674-.705.8477-1.2223 1.0919-.5881.272-1.2408.406-1.8994.3902H51.506v-6.1915h2.4049c.6575-.0157 1.3093.1151 1.8994.3811.5172.2387.9433.6151 1.2223 1.0798.2781.5036.423 1.0599.423 1.6242s-.1449 1.1207-.423 1.6243Zm-1.546-.1482c.3856-.4113.5976-.9355.5976-1.4776 0-.542-.212-1.0662-.5976-1.4775-.4661-.3726-1.0739-.5617-1.6914-.5263h-.9381v4.0077h.9381c.6175.0353 1.2253-.1538 1.6914-.5263ZM40.8558 6.76672S58.2945 12.7949 57.9245 21.518v14.7542S40.4991 30.2411 40.8624 21.518l-.0066-14.75128ZM73.4603 32.8181c3.2935-2.0753 7.103-3.3607 11.0796-3.7385v-4.6187c-4.582 1.617-8.469 4.5489-11.0796 8.3572Z"/><path d="M71.4816 34.2095c2.6957-4.9699 7.3689-8.8049 13.0584-10.7163V10.1847s-24.835 8.587-24.3097 21.0092v21.0062s1.1066-.3841 2.8475-1.104c0-.6714 0-1.3489.0793-2.0295.514-5.767 3.5083-11.111 8.3245-14.8571Z"/><path d="M69.1197 42.0131c.1305-1.4568.4216-2.8979.8688-4.3011-2.9989 3.2351-4.8151 7.2494-5.1929 11.4786-.0364.3993-.0562.7985-.0661 1.2099 1.4105-.6201 3.0523-1.3944 4.7767-2.3048-.44-2.0009-.5702-4.0485-.3865-6.0826ZM70.1075 42.0887c-.1654 1.8403-.0621 3.6926.3072 5.5079 6.7852-3.7173 14.4094-9.4611 14.1154-16.4027v-.6049c-4.8477.4966-9.3833 2.437-12.9097 5.523-.8256 1.9124-1.3355 3.9267-1.5129 5.9767Z"/>
        </symbol>
        <symbol id="Logo6" viewBox="0 0 106 61">
        <path d="M53.425 27.4082c-.4431-.5898-.6551-1.2869-.6047-1.9886v-2.8832c0-.8838.2004-1.5555.6013-2.015.4008-.4595 1.0894-.6883 2.0655-.6863.9173 0 1.5684.1955 1.9534.5866.42.499.6243 1.1092.5775 1.7246v.6776h-1.6408v-.6864a3.49346 3.49346 0 0 0-.0476-.6716c-.0236-.1521-.1062-.2927-.2344-.3989-.1685-.1145-.3807-.17-.5945-.1555-.2248-.0145-.4478.0441-.6251.1643-.1429.1177-.2382.2719-.2718.4399-.0471.2354-.0687.474-.0645.7128v3.4991c-.0259.3376.0465.6754.2106.9826.0816.1039.1949.1863.3275.2381.1325.0518.279.0709.4233.0552.2102.0149.4188-.042.5809-.1584.1337-.1146.2197-.2641.2446-.4253.0383-.2321.0554-.4665.051-.701v-.7098h1.6408v.6482c.0461.6416-.1532 1.2784-.5673 1.8126-.3771.4283-1.0192.6424-1.9636.6424-.9444 0-1.6579-.2288-2.0621-.704ZM60.2569 27.4376c-.4145-.4488-.6217-1.1029-.6217-1.9681v-3.0328c0-.8564.2072-1.5046.6217-1.9446.4144-.44 1.1075-.659 2.079-.657.9648 0 1.6545.219 2.0689.657.4145.44.6251 1.0882.6251 1.9446v3.0328c0 .8564-.2106 1.5134-.6319 1.9651-.4212.4517-1.1074.6776-2.0621.6776-.9546 0-1.6612-.2288-2.079-.6746Zm2.8434-.7274c.1484-.2811.216-.589.1971-.8975v-3.7133c.019-.3025-.0475-.6045-.1937-.8799-.0832-.1061-.1994-.1899-.3351-.2418-.1358-.0518-.2857-.0697-.4327-.0515-.1474-.0177-.2976.0003-.4338.0521-.1362.0518-.253.1353-.3373.2412-.1494.2746-.2171.577-.197.8799v3.7309c-.0207.3086.047.6168.197.8975.0956.0946.2137.1704.3461.2224.1324.0519.2762.0788.4217.0788.1454 0 .2892-.0269.4216-.0788.1324-.052.2505-.1278.3461-.2224v-.0176ZM67.0035 19.9236h1.7666l1.3283 5.5956 1.3589-5.5956h1.719l.1733 8.0767H72.079l-.1359-5.6132-1.3113 5.6132h-1.0192l-1.3589-5.6338-.1257 5.6338h-1.2841l.1596-8.0767ZM75.3302 19.9236h2.7517c1.5854 0 2.378.7644 2.378 2.2934 0 1.4644-.8345 2.1956-2.5037 2.1936h-.9376v3.5897H75.32l.0102-8.0767Zm2.3509 3.4518c.1678.0184.3382.0051.4995-.039.1613-.044.3096-.1178.4347-.2161.1948-.2728.2807-.5932.2446-.9121.0089-.2464-.0185-.4928-.0816-.7332-.0242-.0803-.0667-.1556-.125-.2216-.0584-.066-.1313-.1212-.2147-.1626-.2358-.0976-.4964-.142-.7575-.129h-.6591v2.4136h.6591ZM82.9094 19.9236h1.8243l1.8718 8.0767h-1.583l-.3703-1.8623h-1.6273l-.3805 1.8623h-1.6068l1.8718-8.0767Zm1.5593 5.2789-.6353-3.3902-.6352 3.3902h1.2705ZM88.1173 19.9236h1.189l2.2762 4.6073v-4.6073h1.4098v8.0767H91.861l-2.2897-4.8097v4.8097h-1.4574l.0034-8.0767ZM96.2945 24.9208l-1.8923-4.9859h1.5933l1.1551 3.2027 1.0837-3.2027h1.5593l-1.8685 4.9859v3.0795h-1.6306v-3.0795ZM56.0477 31.5316v.4224h-1.386v3.2819h-.581V31.954h-1.3928v-.4224h3.3598ZM60.3927 35.2362h-.4485c-.0455.0024-.0904-.0101-.1257-.0352-.0339-.0215-.0598-.051-.0747-.085l-.4009-.8799h-1.9228l-.4009.8799c-.0114.0368-.0323.0708-.0612.0997-.0355.0245-.0802.037-.1256.0352h-.4485l1.6986-3.7041h.5912l1.719 3.6894Zm-2.813-1.3755h1.6036l-.6795-1.5074a2.6989 2.6989 0 0 1-.1257-.349c-.0238.0704-.0442.1378-.0645.1965l-.0612.1554-.6727 1.5045ZM63.3211 34.8724c.1064.0048.213.0048.3193 0 .0919-.0082.1828-.0229.2718-.044.0832-.0177.165-.0402.2446-.0675.0748-.0264.1495-.0587.2276-.0909v-.8331h-.6794a.1372.1372 0 0 1-.0494-.0064.12462.12462 0 0 1-.0423-.0229.08636.08636 0 0 1-.0259-.0304.07423.07423 0 0 1-.0081-.0371v-.2845h1.3181v1.4197a2.5776 2.5776 0 0 1-.3397.176 2.50604 2.50604 0 0 1-.3771.1261c-.1389.0353-.281.0608-.4247.0763a5.12828 5.12828 0 0 1-.4959.0234c-.293.0022-.5837-.0446-.8562-.1378-.2543-.0883-.4854-.22-.6794-.3872-.1891-.1689-.338-.3682-.4382-.5866-.1071-.2456-.1601-.5062-.1563-.7685-.0036-.264.0482-.5264.1529-.7744.0977-.2195.2469-.4193.4382-.5866.1939-.1667.4251-.2974.6795-.3843.2909-.0945.5996-.1412.9104-.1379.1582-.0001.3161.0107.4722.0323.1381.0194.2736.0509.4043.0939.1188.0385.2327.0877.3397.1466.1041.0579.203.1226.2956.1936l-.1631.2288c-.0128.0209-.0318.0385-.0551.0508-.0233.0124-.05.0192-.0774.0196-.0376-.001-.0741-.0112-.1053-.0293-.051-.0235-.1053-.0528-.1665-.088a1.5038 1.5038 0 0 0-.2276-.0997 2.12666 2.12666 0 0 0-.3125-.0822 2.61439 2.61439 0 0 0-.4315-.0322c-.2241-.0022-.4466.0327-.6556.1026-.1891.0655-.3595.1656-.4994.2933-.1408.1332-.2484.29-.316.4606-.1517.4011-.1517.8336 0 1.2348.0744.1742.1901.3331.3398.4664.1393.1271.3084.2271.496.2933.216.0641.4449.089.6726.0734ZM68.7362 34.8136h1.8549v.4223h-2.4222v-3.7043h.5809l-.0136 3.282ZM72.5208 35.2359h-.581v-3.7043h.581v3.7043ZM74.6814 31.5492c.0345.017.0646.04.0883.0675l2.4833 2.7923a.88124.88124 0 0 1 0-.132V31.517h.5062v3.7192h-.2921c-.0433.003-.0867-.0041-.1257-.0206-.0353-.0184-.0664-.0423-.0918-.0704l-2.4799-2.7894V35.2362h-.4858v-3.7046h.3024a.26783.26783 0 0 1 .0951.0176ZM82.0364 31.5316v.4077h-2.0587v1.2231h1.668v.393h-1.668v1.2641h2.0587v.4077h-2.6566v-3.6956h2.6566ZM21.1617 8.65551l25.7951 6.32329v22.158l-25.7951-6.3204V8.65551Zm-1.6544-1.88879V31.8928l29.1006 7.1357V13.9054L19.5073 6.76672Z"/><path d="M35.1039 50.6922 6 43.5505V18.4271l29.1039 7.1388v25.1263Z"/><path d="M19.9897 8.37099 45.4484 14.615l-10.8269 9.3499-25.4621-6.247 10.8303-9.34691Zm-.4824-1.60427L6 18.4277l29.1039 7.1385 13.5039-11.6609-29.1005-7.13858ZM36.7414 49.2788l11.8664-10.2473-11.8664-2.9122v13.1595Z"/>
        </symbol>
        <symbol id="close-black" viewBox="0 0 32 32">
        <path d="m26.7 7.3-2-2-7.8 7.8L9 5.3l-2 2 7.8 7.8L7.1 23l2 2 7.8-7.8 7.8 7.8 2-2-7.8-7.8 7.8-7.8z"/>
        </symbol>
    </defs>
</svg>
